<svg width="2523" height="957" viewBox="0 0 2523 957" fill="none" xmlns="http://www.w3.org/2000/svg">
<path d="M2505.93 0C2504.2 0.487625 2502.42 0.755819 2500.52 0.682675C2497.06 0.560769 2494.79 1.90174 2492.03 4.12043C2486.35 8.65535 2479.96 12.6051 2472.28 12.8245C2468.33 12.9464 2465.29 14.5068 2461.73 16.1404C2450.46 21.3824 2441.03 31.5493 2427.03 29.9889C2426.11 29.8914 2424.55 30.1352 2424.23 30.7204C2421.08 36.7426 2413.79 36.5231 2409.48 40.7167C2409.33 40.863 2409.14 41.058 2408.97 41.0337C2399.9 40.1559 2393.09 45.788 2385.41 49.0551C2383.73 49.7865 2382.02 50.1035 2380.9 51.7126C2380.34 52.5172 2379.37 53.6875 2378.71 53.6144C2369.66 52.5172 2362.49 59.7828 2353.6 59.1245C2350.89 58.9295 2348.89 59.856 2346.62 61.7577C2340.53 66.9022 2333.7 71.1933 2325.29 71.242C2320.88 71.2664 2317.51 71.8759 2314.29 75.8745C2311.32 79.5804 2305.74 80.897 2301.4 82.8231C2296.3 85.0662 2291.42 89.3085 2285.08 88.4064C2284.11 88.2601 2282.82 88.6502 2282.57 89.723C2281.16 95.8915 2275.99 94.6968 2271.65 96.0378C2264.7 98.2077 2257.75 100.402 2251.12 104.035C2245.17 107.278 2240.05 113.397 2232.15 112.739C2231.4 112.666 2230.2 112.812 2229.86 113.3C2223.67 122.443 2212.84 124.369 2203.89 127.831C2196.07 130.854 2190.05 139.388 2180.2 137.023C2170.98 145.459 2159.72 140.631 2149.4 141.728C2146.77 141.996 2144.11 141.679 2142.45 138.973C2141.09 136.73 2138.72 136.779 2136.48 136.779C2129.58 136.779 2122.68 136.779 2115.76 136.73C2111.73 136.73 2107.91 136.34 2104.79 140.241C2102.64 142.923 2098.67 141.777 2095.5 141.801C2037.83 141.85 1980.15 141.85 1922.49 141.85C1896.3 141.85 1870.09 141.875 1843.91 141.85C1840.64 141.85 1837.47 141.582 1835.64 145.385C1834.57 147.629 1831.98 147.677 1829.69 147.629C1811.23 147.36 1792.75 148.409 1774.32 146.604C1772.74 146.458 1770.47 146.434 1769.76 145.434C1765.96 140.143 1760.52 141.216 1755.35 141.216C1727.95 141.167 1700.52 141.143 1673.11 141.143C1669.21 141.143 1665.34 141.387 1663.46 136.73C1662.51 134.389 1660.07 134.853 1658.1 134.853C1645.71 134.877 1633.32 134.95 1620.94 134.999C1619.13 134.999 1617.01 134.658 1615.82 136.291C1611.82 141.753 1606.14 141.192 1600.39 141.167C1542.11 141.119 1483.82 141.143 1425.55 141.167C1421.48 141.167 1417.09 139.948 1414.77 145.385C1413.87 147.507 1410.72 146.726 1408.55 146.751C1387.83 146.775 1367.13 146.8 1346.41 146.751C1340.77 146.751 1335.51 147.238 1331.75 152.31C1330.95 153.407 1329.88 153.821 1328.71 153.968C1325.66 153.968 1322.44 153.968 1319.1 153.968C1303.35 153.968 1287.6 153.968 1271.87 153.968C1271.87 153.968 1271.87 153.968 1271.87 153.992C1208.77 153.992 1208.14 153.992 1197.8 153.992C1195.41 153.992 1192.63 154.577 1190.98 152.334C1187.22 147.287 1181.95 146.775 1176.32 146.775C1155.6 146.824 1134.9 146.824 1114.17 146.775C1111.98 146.775 1108.86 147.555 1107.96 145.41C1105.67 139.973 1101.25 141.192 1097.18 141.192C1038.91 141.167 980.614 141.143 922.343 141.192C916.613 141.192 910.908 141.777 906.91 136.316C905.715 134.682 903.594 135.023 901.79 135.023C889.404 134.95 877.018 134.901 864.632 134.877C862.658 134.877 860.219 134.389 859.269 136.754C857.391 141.411 853.539 141.167 849.614 141.167C822.209 141.167 794.78 141.167 767.376 141.241C762.231 141.241 756.77 140.168 752.966 145.459C752.259 146.434 749.992 146.458 748.407 146.629C729.975 148.433 711.494 147.385 693.037 147.653C690.745 147.677 688.185 147.653 687.088 145.41C685.26 141.606 682.09 141.875 678.823 141.875C652.637 141.875 626.428 141.875 600.242 141.875C542.58 141.875 484.894 141.875 427.233 141.826C424.063 141.826 420.089 142.972 417.943 140.265C414.823 136.364 410.995 136.73 406.972 136.754C400.072 136.779 393.172 136.754 386.248 136.803C384.005 136.803 381.64 136.754 380.274 138.998C378.617 141.704 375.959 142.021 373.326 141.753C362.988 140.655 351.724 145.507 342.532 137.047C332.682 139.412 326.66 130.879 318.834 127.855C309.886 124.393 299.06 122.467 292.868 113.324C292.526 112.836 291.332 112.715 290.576 112.763C282.676 113.422 277.556 107.302 271.607 104.059C264.975 100.426 258.027 98.2321 251.078 96.0622C246.738 94.6968 241.569 95.9159 240.155 89.7474C239.912 88.6746 238.619 88.2845 237.644 88.4308C231.305 89.3329 226.453 85.0906 221.333 82.8475C216.969 80.9458 211.41 79.6048 208.435 75.8988C205.241 71.9247 201.877 71.3152 197.439 71.2664C189.028 71.1933 182.201 66.9265 176.106 61.7821C173.838 59.8804 171.839 58.9295 169.133 59.1489C160.234 59.8072 153.066 52.5416 144.02 53.6388C143.362 53.7119 142.362 52.5416 141.826 51.737C140.68 50.1035 138.998 49.7865 137.315 49.0795C129.66 45.8124 122.857 40.2047 113.763 41.058C113.592 41.058 113.397 40.8874 113.251 40.7411C108.935 36.5475 101.645 36.7669 98.5003 30.7448C98.1833 30.1596 96.6229 29.9158 95.6964 30.0133C81.7016 31.5737 72.266 21.4067 61.0019 16.1648C57.4422 14.5068 54.3946 12.9464 50.4448 12.8489C42.7647 12.6295 36.3525 8.67973 30.696 4.14481C27.9409 1.9505 25.6491 0.58515 22.2113 0.707056C20.3096 0.7802 18.5298 0.512006 16.7987 0.0243813C10.2889 24.1374 4.70558 48.4943 0 73.0219H0.0487625C1.43849 73.0219 3.60843 73.0219 4.04729 73.8264C6.99742 79.1172 11.8981 77.7518 16.4086 77.8494C21.5774 77.9469 23.211 80.58 21.9675 85.3588C22.1138 85.7001 22.3576 85.9195 22.699 86.0658C32.5977 82.5549 39.9853 92.8438 49.6159 90.9421C49.8353 90.8933 50.3229 91.4053 50.4448 91.7467C51.9321 95.5014 54.8091 96.6717 58.6369 96.4766C60.5874 96.3791 62.221 97.5738 63.1718 99.1586C64.6103 101.597 66.6584 102.231 69.2671 102.157C71.0714 102.109 73.412 101.865 74.4116 103.401C77.3373 107.814 81.6528 107.082 85.8464 107.058C88.7478 107.058 91.8198 106.912 92.7463 110.471C93.6728 114.056 96.1353 114.47 99.2073 114.421C100.792 114.397 103.303 114.275 103.815 115.153C107.034 120.492 112.129 118.932 116.737 119.2C118.371 119.297 120.078 119.322 121.102 120.834C124.222 125.344 128.928 126.1 133.853 126.49C136.291 126.685 139.022 126.685 137.998 130.513C138.51 131.196 139.022 131.878 139.534 132.585C149.75 128.831 157.479 138.51 167.158 137.73C167.28 137.73 167.45 137.998 167.548 138.169C171.863 145.117 180.056 145.361 186.419 148.628C190.369 150.652 193.465 151.944 193.587 156.723C195.733 156.845 197.878 156.942 199.999 157.064C205.827 154.382 208.021 155.089 208.655 159.795C209.776 161.965 211.776 162.184 213.872 162.16C216.359 159.99 219.212 159.99 221.455 161.989C223.381 163.696 225.356 164.354 227.721 164.988C232.11 166.158 235.035 168.962 235.011 173.936C236.693 174.058 238.4 174.204 240.082 174.326C246.08 172.278 250.932 176.447 254.76 179.08C259.758 182.542 267.755 181.909 269.974 189.32C276.557 188.15 281.238 193.807 287.553 194.124C291.624 194.343 297.037 193.758 297.646 200.316C297.695 200.828 298.89 201.731 299.402 201.633C304.79 200.731 308.789 204.339 313.445 205.802C321.321 208.265 326.148 213.019 326.538 221.577C326.611 223.503 327.221 225.185 329.049 226.136C333.341 228.355 333.779 232.134 333.755 236.449C333.657 265.049 333.706 293.672 333.706 322.271C333.706 326.221 332.755 330.537 338.046 332.292C339.168 332.658 339.558 333.999 339.387 335.389C337.827 348.53 339.119 361.696 338.778 374.862C338.704 377.251 338.363 379.836 340.46 381.713C344.288 385.175 344.873 389.734 344.848 394.513C344.824 400.608 344.8 406.679 344.8 412.775C344.8 414.823 344.653 417.383 346.97 417.968C351.456 419.114 350.822 422.405 350.993 425.624C351.236 430.451 349.14 436.156 351.968 439.935C355.966 445.299 355.771 450.834 355.674 456.637C355.625 460.464 355.601 463.853 360.355 465.146C362.696 465.78 363.72 468.169 363.646 470.509C363.378 477.848 361.428 484.699 367.182 491.965C370.449 496.085 366.426 505.131 374.52 508.374C374.74 515.664 378.202 522.125 379.738 529C381.81 538.241 384.054 545.311 390.88 553.43C391.709 554.43 391.782 556.039 392.27 557.356C394.83 564.182 398.707 570.668 397.414 578.445C397.195 579.786 398.682 580.274 399.633 581.03C401.632 582.566 409.264 597.121 409.215 599.608C409.142 602.753 410.727 604.436 412.897 606.606C415.895 609.629 421.016 611.092 421.406 616.383C421.844 622.307 428.379 626.135 426.916 632.791C426.672 633.913 428.622 634.254 429.671 634.839C433.084 636.741 437.448 639.691 437.595 642.617C437.96 650.029 444.738 654.052 445.567 660.854C445.763 662.414 446.957 663.146 448.079 664.097C451.248 666.803 453.906 669.802 456.368 673.337C459.172 677.36 461.903 681.261 464.39 685.552C467.779 691.404 474.094 695.475 474.922 703.009C475.093 704.496 476.702 705.106 477.629 706.13C484.675 713.786 493.867 719.442 499.353 728.512C502.668 733.998 508.52 736.192 512.689 740.41C522.1 749.943 530.414 760.549 541.142 768.887C543.873 771.008 545.677 773.617 549.627 773.373C552.04 773.227 553.967 775.007 554.771 777.104C555.966 780.225 558.672 782.199 561.037 783.37C565.694 785.686 571.789 785.467 573.715 791.903C573.837 792.293 575.276 792.61 575.958 792.44C582.444 790.83 586.125 795.999 589.807 799.193C596.609 805.093 606.021 803.582 612.92 809.311C620.332 815.455 633.523 809.799 639.179 820.917C639.374 821.307 640.276 821.551 640.837 821.502C647.615 820.966 653.588 823.062 659.781 825.744C664.926 827.963 671.021 826.33 676.702 826.622C678.896 826.744 681.505 826.232 682.943 828.28C686.137 832.766 691.014 832.815 695.524 832.864C715.224 833.108 734.924 833.059 754.624 832.864C758.793 832.815 763.475 832.937 766.693 829.767C769.667 826.842 772.983 826.598 776.714 826.525C782.37 826.427 788.587 828.158 793.512 825.159C798.803 821.941 804.118 821.6 809.799 821.6C811.993 821.6 814.651 821.941 815.236 818.991C816.163 814.261 819.649 813.944 823.136 814.553C830.694 815.846 835.277 807.58 842.714 808.824C842.933 808.848 843.348 808.312 843.494 807.97C846.59 801.071 854.465 801.314 859.707 797.584C862.341 795.707 865.949 793.244 869.777 792.805C873.727 792.342 877.945 792.976 879.164 787.441C879.578 785.637 881.992 785.15 883.869 785.345C887.526 785.71 889.575 783.467 892.208 781.492C895.377 779.127 894.621 773.398 899.4 773.178C904.691 772.935 908.884 769.911 912.03 766.839C916.126 762.792 922.099 764.572 925.951 760.354C929.682 756.282 932.217 750.187 939.288 750.284C939.849 750.284 940.507 749.26 940.946 748.602C943.53 744.725 947.87 742.751 950.893 739.215C953.429 736.241 956.94 733.754 961.475 734.046C963.523 734.168 964.791 732.974 965.717 731.17C969.618 723.66 976.518 718.345 982.735 713.591C989.733 708.202 994.999 701.302 1001.41 695.548C1008.34 689.356 1015.33 682.748 1021.48 675.605C1027.62 668.461 1036.13 663.414 1040.35 654.515C1041.06 653.028 1042.42 652.101 1044.08 651.613C1049.27 650.102 1051.78 646.396 1052.39 641.178C1052.61 639.374 1052.69 636.716 1054.25 636.253C1058.78 634.839 1059.88 630.816 1062.46 627.744C1068.26 620.82 1076.8 616.456 1081.99 608.873C1084.04 605.899 1089.7 606.459 1089.35 602.51C1088.72 594.829 1094.11 591.782 1098.55 587.539C1101.79 584.467 1106.37 581.883 1106.54 576.739C1106.76 570.326 1110.71 566.815 1115.56 564.134C1117.59 563.012 1119.08 562.183 1118.81 559.794C1118.25 554.991 1121 551.407 1124.66 550.041C1133.39 546.75 1132.24 537.704 1135.87 531.658C1139.53 525.562 1143.19 519.223 1146.38 512.738C1148.7 508.008 1155.18 505.984 1154.48 499.353C1154.01 495.086 1153.94 490.673 1159.33 488.844C1160.57 488.43 1160.82 486.869 1160.62 485.675C1159.57 478.726 1166.98 474.727 1166.76 468.023C1166.74 467.291 1167.86 466.194 1168.69 465.804C1172.86 463.927 1172.57 460.367 1172.88 456.637C1173.23 452.711 1170.57 448.079 1174.98 444.86C1175.27 444.787 1175.49 444.617 1175.62 444.348C1176.1 442.666 1176.81 441.106 1178.35 440.106C1178.47 438.107 1178.59 436.132 1178.69 434.133C1177.18 427.184 1181.1 421.235 1188 420.089C1189.63 420.04 1191.24 419.967 1192.88 419.918C1203.07 426.355 1214.45 423.844 1225.43 424.063C1232.4 424.185 1222.53 424.209 1277.8 424.185C1278.43 424.185 1279.09 424.185 1279.72 424.185C1288.26 424.185 1296.55 424.185 1304.42 424.185C1308.4 424.331 1312.37 424.502 1316.3 424.185C1326.05 424.185 1334.8 424.185 1341.99 424.185C1344.09 426.769 1344.99 430.305 1344.14 434.181C1344.26 436.181 1344.38 438.156 1344.48 440.155C1346.04 441.154 1346.72 442.715 1347.21 444.397C1347.33 444.665 1347.55 444.836 1347.84 444.909C1352.26 448.127 1349.6 452.76 1349.94 456.685C1350.26 460.44 1349.94 463.975 1354.14 465.853C1354.96 466.243 1356.09 467.34 1356.06 468.071C1355.82 474.776 1363.23 478.775 1362.21 485.723C1362.03 486.918 1362.25 488.478 1363.5 488.893C1368.89 490.722 1368.81 495.135 1368.35 499.401C1367.62 506.057 1374.13 508.081 1376.44 512.787C1379.61 519.248 1383.27 525.611 1386.95 531.706C1390.58 537.753 1389.41 546.798 1398.17 550.09C1401.82 551.455 1404.58 555.039 1404.02 559.842C1403.73 562.232 1405.24 563.085 1407.26 564.182C1412.14 566.864 1416.09 570.375 1416.28 576.787C1416.45 581.932 1421.06 584.516 1424.28 587.588C1428.72 591.831 1434.11 594.878 1433.47 602.558C1433.15 606.508 1438.81 605.972 1440.83 608.922C1446.05 616.504 1454.56 620.869 1460.36 627.793C1462.95 630.865 1464.05 634.888 1468.58 636.302C1470.12 636.79 1470.21 639.423 1470.43 641.227C1471.04 646.445 1473.55 650.151 1478.75 651.662C1480.43 652.15 1481.8 653.076 1482.48 654.564C1486.67 663.463 1495.18 668.485 1501.35 675.653C1507.49 682.821 1514.51 689.404 1521.41 695.597C1527.83 701.351 1533.07 708.251 1540.09 713.639C1546.28 718.394 1553.21 723.709 1557.11 731.218C1558.04 732.998 1559.33 734.217 1561.35 734.095C1565.89 733.803 1569.42 736.314 1571.93 739.264C1574.96 742.799 1579.3 744.75 1581.88 748.651C1582.32 749.309 1583 750.333 1583.54 750.333C1590.61 750.236 1593.14 756.331 1596.87 760.403C1600.73 764.621 1606.7 762.841 1610.8 766.888C1613.94 769.984 1618.14 772.983 1623.43 773.227C1628.23 773.447 1627.45 779.201 1630.62 781.541C1633.28 783.516 1635.32 785.759 1638.96 785.393C1640.83 785.198 1643.25 785.662 1643.66 787.49C1644.88 793.025 1649.1 792.391 1653.05 792.854C1656.88 793.293 1660.49 795.755 1663.12 797.633C1668.38 801.363 1676.26 801.119 1679.33 808.019C1679.48 808.361 1679.89 808.897 1680.11 808.873C1687.55 807.654 1692.13 815.894 1699.69 814.602C1703.18 814.017 1706.66 814.31 1707.59 819.04C1708.18 822.014 1710.83 821.648 1713.03 821.648C1718.71 821.648 1724.02 821.99 1729.31 825.208C1734.24 828.182 1740.46 826.476 1746.11 826.573C1749.84 826.646 1753.16 826.89 1756.13 829.816C1759.35 832.986 1764.03 832.864 1768.2 832.912C1787.9 833.108 1807.6 833.132 1827.3 832.912C1831.79 832.864 1836.66 832.815 1839.88 828.329C1841.35 826.305 1843.93 826.793 1846.12 826.671C1851.78 826.354 1857.88 828.012 1863.04 825.793C1869.24 823.111 1875.21 821.014 1881.99 821.551C1882.53 821.6 1883.45 821.356 1883.65 820.966C1889.33 809.848 1902.49 815.504 1909.91 809.36C1916.81 803.631 1926.22 805.142 1933.02 799.242C1936.7 796.048 1940.38 790.879 1946.87 792.488C1947.55 792.659 1948.99 792.342 1949.11 791.952C1951.04 785.515 1957.11 785.735 1961.79 783.419C1964.15 782.248 1966.86 780.298 1968.06 777.153C1968.86 775.056 1970.79 773.276 1973.2 773.422C1977.15 773.666 1978.93 771.057 1981.68 768.936C1992.41 760.622 2000.73 750.016 2010.14 740.459C2014.31 736.241 2020.16 734.046 2023.47 728.561C2028.93 719.515 2038.13 713.834 2045.2 706.179C2046.15 705.155 2047.76 704.57 2047.9 703.058C2048.73 695.548 2055.05 691.452 2058.44 685.601C2060.92 681.31 2063.68 677.409 2066.46 673.386C2068.92 669.851 2071.58 666.827 2074.75 664.145C2075.84 663.195 2077.06 662.463 2077.26 660.903C2078.09 654.1 2084.87 650.077 2085.23 642.666C2085.38 639.74 2089.74 636.765 2093.16 634.888C2094.2 634.303 2096.15 633.961 2095.91 632.84C2094.42 626.184 2100.98 622.356 2101.42 616.431C2101.81 611.141 2106.93 609.678 2109.93 606.654C2112.1 604.485 2113.68 602.802 2113.61 599.657C2113.56 597.17 2121.19 582.615 2123.19 581.078C2124.17 580.347 2125.66 579.835 2125.41 578.494C2124.12 570.692 2128 564.231 2130.56 557.404C2131.04 556.112 2131.12 554.479 2131.95 553.479C2138.77 545.36 2141.02 538.289 2143.09 529.049C2144.62 522.173 2148.09 515.712 2148.31 508.422C2156.4 505.18 2152.38 496.134 2155.64 492.014C2161.4 484.748 2159.45 477.897 2159.18 470.558C2159.11 468.218 2160.11 465.828 2162.47 465.194C2167.23 463.902 2167.23 460.513 2167.15 456.685C2167.05 450.883 2166.86 445.348 2170.86 439.984C2173.66 436.205 2171.59 430.5 2171.83 425.672C2172 422.454 2171.37 419.163 2175.86 418.017C2178.2 417.407 2178.03 414.871 2178.03 412.823C2178.03 406.728 2178.03 400.657 2177.98 394.562C2177.95 389.783 2178.54 385.224 2182.37 381.762C2184.46 379.884 2184.1 377.3 2184.05 374.911C2183.71 361.745 2184.97 348.579 2183.44 335.437C2183.27 334.048 2183.68 332.707 2184.78 332.341C2190.07 330.561 2189.12 326.27 2189.12 322.32C2189.12 293.721 2189.17 265.097 2189.07 236.498C2189.07 232.158 2189.51 228.404 2193.78 226.185C2195.61 225.234 2196.21 223.552 2196.29 221.626C2196.65 213.068 2201.48 208.313 2209.38 205.851C2214.04 204.388 2218.01 200.804 2223.42 201.682C2223.94 201.779 2225.13 200.877 2225.18 200.365C2225.81 193.807 2231.23 194.367 2235.27 194.172C2241.59 193.855 2246.27 188.199 2252.85 189.369C2255.07 181.957 2263.04 182.591 2268.07 179.129C2271.89 176.472 2276.75 172.327 2282.74 174.375C2284.43 174.253 2286.13 174.107 2287.82 173.985C2287.77 168.986 2290.72 166.207 2295.11 165.037C2297.47 164.403 2299.44 163.769 2301.37 162.038C2303.61 160.039 2306.47 160.039 2308.95 162.208C2311.07 162.257 2313.05 162.013 2314.17 159.844C2314.81 155.138 2317 154.431 2322.83 157.113C2324.97 156.991 2327.09 156.893 2329.24 156.771C2329.36 151.993 2332.48 150.701 2336.41 148.677C2342.77 145.41 2350.96 145.166 2355.28 138.217C2355.38 138.047 2355.55 137.754 2355.67 137.778C2365.35 138.559 2373.08 128.879 2383.29 132.634C2383.8 131.951 2384.32 131.269 2384.83 130.562C2383.78 126.734 2386.53 126.734 2388.97 126.539C2393.9 126.149 2398.6 125.368 2401.72 120.882C2402.75 119.395 2404.46 119.346 2406.09 119.249C2410.7 118.981 2415.82 120.565 2419.01 115.201C2419.52 114.324 2422.03 114.446 2423.62 114.47C2426.69 114.519 2429.13 114.104 2430.08 110.52C2431.01 106.961 2434.08 107.082 2436.98 107.107C2441.15 107.107 2445.49 107.863 2448.41 103.45C2449.41 101.938 2451.75 102.157 2453.56 102.206C2456.17 102.279 2458.22 101.645 2459.65 99.2073C2460.58 97.6225 2462.24 96.4279 2464.19 96.5254C2468.02 96.7204 2470.89 95.5501 2472.38 91.7954C2472.5 91.4541 2472.99 90.9421 2473.21 90.9908C2482.84 92.8926 2490.23 82.6037 2500.13 86.1146C2500.47 85.9927 2500.71 85.7489 2500.86 85.4075C2499.62 80.6044 2501.25 77.9956 2506.42 77.8981C2510.9 77.825 2515.8 79.1659 2518.78 73.8752C2519.22 73.095 2521.41 73.0706 2522.78 73.0706H2522.83C2518.12 48.5431 2512.54 24.1862 2506.1 0.0487625L2505.93 0ZM1119.68 285.236C1114.74 288.455 1115.86 293.258 1115.83 297.817C1115.78 304.912 1115.83 312.007 1115.83 319.126C1115.83 324.515 1116.91 330.195 1111.03 333.779C1109.59 334.657 1109.96 336.705 1109.66 338.29C1107.81 347.945 1109.05 357.722 1108.64 367.426C1108.54 369.62 1109.2 372.229 1106.98 373.594C1103.57 375.715 1103.72 378.86 1103.72 382.127C1103.74 392.465 1103.76 402.827 1103.72 413.165C1103.72 414.969 1104.03 417.675 1103.03 418.407C1096.91 422.942 1098.89 429.305 1098.74 435.132C1098.62 439.472 1099.11 443.739 1093.55 445.397C1091.55 445.982 1091.6 448.249 1091.5 450.102C1091.4 451.931 1091.5 453.857 1090.13 455.271C1085.6 459.928 1085.23 466.657 1081.09 471.85C1075.36 479.019 1074.17 489.259 1066.63 495.671C1064.22 497.719 1061.83 500.084 1062.97 504.034C1063.41 505.497 1062.15 506.74 1060.88 507.447C1058.39 508.837 1057.85 511.275 1057.66 513.664C1057.39 516.736 1056 518.589 1053.59 520.589C1049.95 523.612 1046 526.952 1045.37 532.097C1044.86 536.29 1042.4 538.777 1039.62 541.605C1032.47 548.846 1021.6 553.089 1020.09 565.06C1019.99 565.913 1018.92 566.669 1018.21 567.401C1014.28 571.326 1012.09 577.177 1005.73 578.397C1005.12 578.518 1004.29 579.542 1004.26 580.176C1004.09 585.711 999.363 587.223 995.877 589.734C991.439 592.903 988.026 596.731 986.978 602.217C986.588 604.314 985.685 605.923 984.247 607.483C972.568 620.064 959.11 630.889 948.211 644.25C944.31 649.053 938.435 651.979 934.68 656.66C930.852 661.463 928.121 666.779 920.856 666.364C919.637 666.291 918.637 666.827 917.613 667.705C908.08 675.824 902.57 688.795 888.648 691.574C888.477 691.599 888.355 691.843 888.209 691.989C882.967 696.694 879.212 703.546 870.923 703.96C870.289 703.984 869.753 705.033 869.094 705.496C860.951 711.104 853.929 718.638 843.396 720.076C842.494 720.198 841.422 720.929 840.91 721.685C836.96 727.732 831.401 730.999 824.525 733.218C814.7 736.387 806.751 744.628 795.487 744.311C794.902 744.311 794.293 744.579 793.756 744.823C782.273 750.016 770.448 753.771 757.623 752.918C756.404 752.844 755.185 752.893 753.966 752.918C748.7 753.039 742.702 751.308 740.239 758.428C740.069 758.891 739.362 759.354 738.801 759.476C732.852 760.817 726.927 761.402 720.759 760.305C717.54 759.744 716.468 757.769 714.956 755.648C713.761 753.966 711.86 754.015 710.007 753.82C696.67 752.381 682.846 757.087 669.826 749.358C665.828 746.969 660.537 747.432 655.539 744.311C650.272 741.02 642.666 739.703 636.107 737.46C630.329 735.485 625.501 729.926 618.552 731.316C618.284 731.365 617.675 730.95 617.602 730.657C615.944 724.733 610.604 724.416 606.02 722.587C603.582 721.612 600.949 719.881 599.657 717.175C598.584 714.907 596.926 713.932 594.464 713.615C591.782 713.274 589.904 711.372 587.808 709.69C580.688 703.984 574.983 696.768 568.254 690.843C558.453 682.212 549.334 673.118 540.898 663.268C538.923 660.976 534.608 660.123 534.754 656.929C535.047 650.321 530.122 647.493 526.538 643.616C524.831 641.788 523.295 639.837 523.222 637.302C523.124 634.547 521.296 633.23 519.686 631.377C516.102 627.281 510.982 624.038 510.934 617.577C510.934 615.383 509.129 614.018 507.667 612.628C503.692 608.776 498.767 605.557 499.036 598.95C499.084 597.56 497.719 596.682 496.646 595.658C492.379 591.684 486.357 588.783 487.576 581.225C487.869 579.445 486.089 578.494 484.602 577.763C483.041 576.982 481.871 575.836 481.969 574.008C482.139 571.033 480.725 569.059 478.458 567.376C476.971 566.279 475.898 564.816 475.751 562.817C475.313 556.21 470.9 550.919 468.144 545.531C465.267 539.874 465.267 532.097 458.66 528.391C458.27 528.171 458.27 527.269 458.124 526.684C456.441 520.028 452.199 514.103 452.76 506.813C452.882 505.131 451.833 503.766 450.127 503.083C448.566 502.473 446.835 501.498 446.811 499.816C446.738 492.404 441.496 486.187 441.496 479.116C441.496 469.364 431.914 462.829 433.669 452.784C433.767 452.224 432.938 451.321 432.328 450.858C429.354 448.591 429.208 445.47 429.232 442.105C429.281 436.034 429.817 429.915 428.281 423.941C427.306 420.162 424.088 417.529 424.014 412.994C423.941 407.972 423.551 402.9 423.405 397.853C423.356 395.83 423.673 393.489 421.82 392.221C415.53 387.881 416.334 381.81 416.871 375.423C417.334 369.693 418.894 363.451 414.993 358.331C412.823 355.479 412.263 352.626 412.263 349.31C412.263 335.12 412.165 320.906 412.263 306.716C412.287 300.792 412.775 294.867 407.435 290.527C406.119 289.454 406.533 287.528 406.216 285.943C404.339 275.874 405.46 265.731 405.143 257.369C405.143 248.104 404.266 240.472 405.363 233.109C406.972 222.333 408.996 213.482 423.527 215.262C436.498 216.847 449.737 212.312 462.707 218.7C468.218 221.406 475.873 220.138 482.554 220.138C588.539 220.212 694.549 220.211 800.534 220.187C808.141 220.187 815.992 221.309 822.672 215.896C823.721 215.043 825.817 215.262 827.402 215.262C874.312 215.262 921.221 215.262 968.107 215.262C970.13 215.262 972.422 214.896 973.885 216.53C976.567 219.553 980.005 219.212 983.442 219.212C1021.4 219.212 1059.39 219.285 1097.35 219.114C1103.01 219.09 1108.57 221.236 1114.3 219.578C1119.17 218.163 1120.93 220.382 1120.9 225.185C1120.78 243.447 1120.83 261.708 1120.78 279.97C1120.78 281.774 1121.32 284.139 1119.73 285.163L1119.68 285.236ZM1194.1 346.116C1191.56 346.116 1189.37 345.068 1189.2 342.532C1188.56 332.658 1186.98 322.564 1191.05 313.153C1192.56 309.691 1193.58 306.497 1193.56 302.791C1193.49 287.577 1193.54 272.363 1193.54 257.149C1193.54 254.297 1193.1 250.859 1195.44 249.152C1198.53 246.909 1198.27 244.13 1198.41 241.106C1198.75 234.158 1201.83 231.061 1208.55 231.037C1215.94 231.037 1216.11 231.037 1276.82 231.037C1289.23 231.037 1301.67 230.988 1314.08 231.037C1320.81 231.037 1323.88 234.133 1324.22 241.106C1324.37 244.13 1324.1 246.909 1327.19 249.152C1329.56 250.859 1329.1 254.297 1329.1 257.149C1329.1 272.363 1329.14 287.577 1329.07 302.791C1329.07 306.497 1330.07 309.691 1331.58 313.153C1335.65 322.564 1334.09 332.658 1333.44 342.532C1333.31 344.458 1332.02 345.531 1330.31 345.921C1319.78 345.921 1305.96 345.946 1290.43 345.97C1284.36 345.946 1278.28 345.921 1272.24 345.897C1272.24 345.921 1272.24 345.946 1272.24 345.994C1210.21 346.043 1205.68 346.092 1194.07 346.141L1194.1 346.116ZM2116.51 285.992C2116.22 287.577 2116.63 289.479 2115.29 290.576C2109.95 294.916 2110.42 300.84 2110.47 306.765C2110.54 320.955 2110.44 335.169 2110.47 349.359C2110.47 352.65 2109.91 355.527 2107.74 358.38C2103.83 363.5 2105.39 369.742 2105.86 375.471C2106.39 381.884 2107.2 387.955 2100.91 392.27C2099.06 393.538 2099.37 395.903 2099.32 397.902C2099.18 402.949 2098.81 408.045 2098.71 413.043C2098.64 417.578 2095.42 420.211 2094.45 423.99C2092.91 429.963 2093.47 436.083 2093.5 442.154C2093.5 445.519 2093.37 448.639 2090.4 450.907C2089.79 451.37 2088.96 452.272 2089.06 452.833C2090.81 462.854 2081.21 469.388 2081.23 479.165C2081.23 486.235 2075.99 492.453 2075.92 499.865C2075.92 501.547 2074.16 502.498 2072.6 503.132C2070.87 503.814 2069.82 505.18 2069.97 506.862C2070.53 514.152 2066.29 520.077 2064.6 526.733C2064.46 527.318 2064.43 528.22 2064.07 528.439C2057.46 532.145 2057.46 539.923 2054.58 545.579C2051.83 550.968 2047.42 556.258 2046.98 562.866C2046.86 564.865 2045.76 566.328 2044.27 567.425C2042 569.107 2040.59 571.058 2040.76 574.057C2040.86 575.885 2039.66 577.031 2038.13 577.811C2036.64 578.567 2034.86 579.518 2035.15 581.274C2036.37 588.832 2030.35 591.733 2026.08 595.707C2025.01 596.707 2023.62 597.585 2023.69 598.999C2023.99 605.606 2019.06 608.824 2015.06 612.677C2013.6 614.091 2011.82 615.432 2011.8 617.626C2011.77 624.063 2006.65 627.33 2003.04 631.426C2001.41 633.279 1999.6 634.595 1999.51 637.35C1999.41 639.886 1997.87 641.837 1996.19 643.665C1992.61 647.542 1987.71 650.346 1987.97 656.977C1988.12 660.147 1983.78 661.025 1981.83 663.316C1973.37 673.166 1964.25 682.261 1954.47 690.892C1947.75 696.816 1942.06 704.033 1934.92 709.738C1932.82 711.421 1930.95 713.322 1928.26 713.664C1925.8 713.981 1924.14 714.956 1923.07 717.223C1921.78 719.93 1919.15 721.661 1916.71 722.636C1912.12 724.465 1906.81 724.806 1905.13 730.706C1905.05 730.999 1904.44 731.438 1904.18 731.365C1897.23 729.975 1892.4 735.534 1886.62 737.509C1880.06 739.752 1872.46 741.068 1867.19 744.36C1862.19 747.481 1856.9 747.042 1852.9 749.407C1839.88 757.136 1826.06 752.43 1812.72 753.868C1810.89 754.064 1808.99 754.015 1807.77 755.697C1806.29 757.794 1805.21 759.793 1801.97 760.354C1795.8 761.427 1789.88 760.841 1783.93 759.525C1783.39 759.403 1782.66 758.94 1782.49 758.476C1780 751.357 1774.03 753.088 1768.76 752.966C1767.54 752.942 1766.32 752.893 1765.11 752.966C1752.26 753.795 1740.46 750.041 1728.97 744.872C1728.44 744.628 1727.8 744.335 1727.24 744.36C1715.98 744.701 1708.03 736.46 1698.2 733.266C1691.3 731.048 1685.74 727.78 1681.82 721.734C1681.33 720.978 1680.23 720.247 1679.33 720.125C1668.8 718.662 1661.78 711.128 1653.63 705.545C1652.98 705.082 1652.44 704.033 1651.81 704.009C1643.52 703.619 1639.76 696.768 1634.52 692.038C1634.37 691.891 1634.25 691.648 1634.08 691.623C1620.16 688.844 1614.65 675.873 1605.12 667.754C1604.09 666.901 1603.09 666.364 1601.87 666.413C1594.61 666.827 1591.9 661.488 1588.05 656.709C1584.29 652.004 1578.42 649.078 1574.52 644.299C1563.62 630.938 1550.16 620.113 1538.48 607.532C1537.04 605.972 1536.14 604.363 1535.75 602.266C1534.73 596.78 1531.29 592.952 1526.85 589.783C1523.37 587.271 1518.64 585.76 1518.46 580.225C1518.46 579.591 1517.61 578.567 1517 578.445C1510.66 577.202 1508.44 571.375 1504.52 567.449C1503.81 566.742 1502.74 565.962 1502.64 565.109C1501.13 553.138 1490.26 548.895 1483.11 541.654C1480.31 538.826 1477.87 536.339 1477.36 532.145C1476.72 527.001 1472.77 523.661 1469.14 520.637C1466.73 518.638 1465.34 516.785 1465.07 513.713C1464.87 511.324 1464.34 508.886 1461.85 507.496C1460.58 506.789 1459.32 505.545 1459.75 504.082C1460.92 500.157 1458.51 497.768 1456.1 495.72C1448.54 489.307 1447.34 479.067 1441.64 471.899C1437.49 466.706 1437.13 459.977 1432.59 455.32C1431.2 453.906 1431.3 451.98 1431.23 450.151C1431.13 448.298 1431.18 446.031 1429.18 445.446C1423.62 443.812 1424.11 439.545 1423.99 435.181C1423.82 429.354 1425.79 422.966 1419.7 418.456C1418.7 417.724 1419.01 415.018 1419.01 413.214C1418.96 402.876 1419.01 392.514 1419.01 382.176C1419.01 378.909 1419.16 375.74 1415.75 373.643C1413.53 372.277 1414.19 369.644 1414.09 367.474C1413.67 357.771 1414.92 348.018 1413.06 338.339C1412.77 336.754 1413.14 334.706 1411.7 333.828C1405.82 330.244 1406.92 324.539 1406.9 319.175C1406.87 312.08 1406.92 304.985 1406.9 297.866C1406.87 293.331 1407.99 288.503 1403.04 285.285C1401.46 284.261 1402.02 281.896 1402 280.092C1401.95 261.83 1402 243.569 1401.87 225.307C1401.85 220.528 1403.6 218.285 1408.48 219.7C1414.19 221.357 1419.74 219.212 1425.43 219.236C1463.39 219.407 1501.37 219.334 1539.33 219.334C1542.77 219.334 1546.21 219.651 1548.89 216.652C1550.36 215.018 1552.67 215.384 1554.67 215.384C1601.58 215.384 1648.49 215.36 1695.37 215.384C1696.98 215.384 1699.06 215.165 1700.1 216.018C1706.79 221.431 1714.64 220.309 1722.24 220.309C1828.23 220.309 1934.24 220.309 2040.22 220.26C2046.9 220.26 2054.54 221.528 2060.07 218.822C2073.04 212.434 2086.28 216.969 2099.25 215.384C2113.78 213.604 2115.81 222.455 2117.41 233.231C2118.51 240.57 2117.63 248.201 2117.63 257.49C2117.32 265.829 2118.44 275.996 2116.56 286.065L2116.51 285.992Z" fill="#020101"/>
</svg>
